<?xml version="1.0" encoding="UTF-8"?>
<svg version="1.1" xmlns="http://www.w3.org/2000/svg" width="1363" height="249">
<path d="M0 0 C4.54341506 0.7039797 5.56678361 1.96321102 8.3671875 5.55078125 C8.99330933 6.34959717 8.99330933 6.34959717 9.63208008 7.16455078 C21.82317571 23.10166663 30.28378111 40.5772696 36.5546875 59.55078125 C36.99296875 59.21046875 37.43125 58.87015625 37.8828125 58.51953125 C42.08030938 55.31168811 46.35343257 52.2073963 50.6796875 49.17578125 C51.65164063 48.48742188 52.62359375 47.7990625 53.625 47.08984375 C56.94770248 45.34431738 58.85478243 45.08119776 62.5546875 45.55078125 C68.56349625 50.16219262 69.19147286 57.00338302 70.24609375 64.18066406 C71.25698072 71.94465984 71.92670973 79.74784739 72.5546875 87.55078125 C73.13323486 87.3492041 73.71178223 87.14762695 74.30786133 86.93994141 C95.98552324 79.43007982 95.98552324 79.43007982 104.5546875 78.55078125 C105.6890625 78.42703125 106.8234375 78.30328125 107.9921875 78.17578125 C110.5546875 78.55078125 110.5546875 78.55078125 112.9296875 80.05078125 C115.52351762 84.04128913 114.92862775 88.34046114 114.16015625 92.8828125 C113.61765307 95.3726592 113.01015785 97.83499588 112.3671875 100.30078125 C112.14522705 101.1731543 111.9232666 102.04552734 111.69458008 102.94433594 C109.89617599 109.77384657 107.60329693 116.16816066 104.5546875 122.55078125 C105.22371094 122.52757812 105.89273437 122.504375 106.58203125 122.48046875 C138.83267644 121.87441636 138.83267644 121.87441636 148.3671875 129.92578125 C149.83174154 133.16321649 149.56553142 134.18292146 148.5546875 137.55078125 C144.27478564 144.94149064 138.82661314 151.62199473 133.3046875 158.11328125 C132.56255005 158.98811157 132.56255005 158.98811157 131.80541992 159.88061523 C128.95166585 163.16662559 125.99489089 165.86083498 122.5546875 168.55078125 C122.2246875 169.21078125 121.8946875 169.87078125 121.5546875 170.55078125 C122.35519531 170.62167969 123.15570312 170.69257813 123.98046875 170.765625 C128.69537951 171.8013595 132.51152748 173.83655738 136.7421875 176.11328125 C137.58064209 176.55929688 138.41909668 177.0053125 139.28295898 177.46484375 C146.54779495 181.40262184 153.67457721 185.67067096 159.5546875 191.55078125 C159.86661216 195.44983955 159.53119366 197.39362145 156.9921875 200.40234375 C136.41393247 218.26132937 107.25942725 226.32999315 80.5546875 227.55078125 C79.71421875 227.59203125 78.87375 227.63328125 78.0078125 227.67578125 C63.90804389 228.01759382 49.96105694 225.82609653 36.5546875 221.55078125 C35.92385254 221.35000977 35.29301758 221.14923828 34.64306641 220.94238281 C22.14883008 216.86865291 10.48493446 210.83761255 -0.4453125 203.55078125 C-1.05375 203.96328125 -1.6621875 204.37578125 -2.2890625 204.80078125 C-32.31274335 224.58108863 -67.50031942 231.93566761 -102.96728516 225.06201172 C-123.28806774 220.56013967 -144.46699472 212.52909903 -159.4453125 197.55078125 C-160.0703125 194.86328125 -160.0703125 194.86328125 -159.4453125 191.55078125 C-152.37669761 182.07188457 -136.39330974 174.49184214 -125.4453125 170.55078125 C-124.4553125 170.55078125 -123.4653125 170.55078125 -122.4453125 170.55078125 C-125.74906467 166.68468828 -129.03306972 162.89333941 -132.7578125 159.42578125 C-139.17491914 153.13963597 -148.49745077 142.35643437 -149.9453125 133.48828125 C-149.4453125 130.55078125 -149.4453125 130.55078125 -147.35546875 128.47265625 C-143.98178866 126.24466886 -141.35122064 125.58518936 -137.3828125 124.86328125 C-136.7230542 124.74299561 -136.0632959 124.62270996 -135.38354492 124.4987793 C-125.40598232 122.75261559 -115.55449003 122.38946459 -105.4453125 122.55078125 C-105.83203125 121.61621094 -106.21875 120.68164062 -106.6171875 119.71875 C-109.68370784 112.07561317 -112.15263003 104.48499642 -113.8828125 96.42578125 C-114.05844727 95.63324951 -114.23408203 94.84071777 -114.41503906 94.02416992 C-115.30295885 89.63364024 -115.85131515 85.91781253 -114.4453125 81.55078125 C-112.42881448 79.42348664 -111.22941046 78.64285881 -108.31640625 78.30078125 C-95.77514848 79.58912876 -82.70351104 82.81547256 -71.4453125 88.55078125 C-71.49751953 86.89755859 -71.49751953 86.89755859 -71.55078125 85.2109375 C-71.72599379 77.07800471 -71.52037594 69.25924912 -70.0703125 61.23828125 C-69.88118286 60.19136108 -69.88118286 60.19136108 -69.68823242 59.12329102 C-67.57952877 48.35614229 -67.57952877 48.35614229 -63.4453125 45.55078125 C-58.3217164 44.99687897 -55.79001155 46.18042463 -51.6328125 49.11328125 C-50.60027344 49.83644531 -49.56773437 50.55960938 -48.50390625 51.3046875 C-44.41747218 54.30558097 -40.38877253 57.36414688 -36.4453125 60.55078125 C-36.1359375 58.78734375 -36.1359375 58.78734375 -35.8203125 56.98828125 C-31.90228034 39.69489791 -22.36655973 23.33235513 -11.4453125 9.55078125 C-10.43984375 8.22820313 -10.43984375 8.22820313 -9.4140625 6.87890625 C-8.74375 6.04875 -8.0734375 5.21859375 -7.3828125 4.36328125 C-6.79371094 3.62722656 -6.20460938 2.89117187 -5.59765625 2.1328125 C-3.4453125 0.55078125 -3.4453125 0.55078125 0 0 Z M-0.4453125 17.55078125 C-22.15780159 47.95776817 -32.39823983 84.67626682 -26.36914062 121.92797852 C-22.15469984 144.11514742 -12.97916953 163.89105197 -0.4453125 182.55078125 C20.29305173 157.23503033 31.55487299 121.81645617 28.31591797 89.14208984 C25.34037907 63.87206838 17.16188781 37.39841089 0.5546875 17.55078125 C0.2246875 17.55078125 -0.1053125 17.55078125 -0.4453125 17.55078125 Z M-55.4453125 63.55078125 C-59.56911621 67.67458496 -58.21004322 81.24508081 -58.32910156 86.68017578 C-58.24931286 93.4331357 -58.24931286 93.4331357 -54.91015625 99.05078125 C-51.83006617 101.32623055 -48.9472409 103.01755353 -45.4453125 104.55078125 C-44.10912948 105.21171783 -42.77518689 105.8772411 -41.4453125 106.55078125 C-41.12741134 102.26581032 -40.85865923 97.9812853 -40.63354492 93.69067383 C-40.55039232 92.23413094 -40.45424307 90.77826608 -40.34448242 89.32348633 C-39.48395586 80.92967131 -39.48395586 80.92967131 -41.84741211 73.09594727 C-43.61214904 71.29136679 -45.32683622 69.91432392 -47.4453125 68.55078125 C-48.24839844 67.96425781 -49.05148437 67.37773438 -49.87890625 66.7734375 C-50.54019531 66.39058594 -51.20148438 66.00773437 -51.8828125 65.61328125 C-52.56214844 65.21238281 -53.24148438 64.81148438 -53.94140625 64.3984375 C-54.68583984 63.97884766 -54.68583984 63.97884766 -55.4453125 63.55078125 Z M50.3046875 66.73828125 C49.53640625 67.32996094 48.768125 67.92164062 47.9765625 68.53125 C47.17734375 69.19769531 46.378125 69.86414063 45.5546875 70.55078125 C44.68529541 71.2675 43.81590332 71.98421875 42.92016602 72.72265625 C39.8755688 76.36272376 40.03473478 78.13935742 40.28515625 82.8203125 C40.31442703 83.50131516 40.34369781 84.18231781 40.37385559 84.88395691 C40.47234186 87.04573604 40.60667707 89.20353871 40.7421875 91.36328125 C40.81553063 92.83386763 40.88651962 94.30457342 40.95507812 95.77539062 C41.12771548 99.36897274 41.33253403 102.95988108 41.5546875 106.55078125 C42.60785156 105.94234375 43.66101563 105.33390625 44.74609375 104.70703125 C46.88092238 103.47637166 48.96429779 102.36256562 51.20703125 101.33203125 C54.16710197 99.67236767 55.67964483 98.41727347 57.5546875 95.55078125 C59.64476572 85.3700007 57.83717546 73.57742478 55.5546875 63.55078125 C53.55254367 63.55078125 51.80177755 65.57580569 50.3046875 66.73828125 Z M-99.4453125 94.55078125 C-95.29772657 115.40721336 -84.71261366 134.00235567 -70.4453125 149.55078125 C-69.66542969 150.42476562 -68.88554688 151.29875 -68.08203125 152.19921875 C-54.9279182 166.21553417 -36.26922513 177.42235496 -17.4453125 181.55078125 C-17.79722656 180.84695312 -18.14914062 180.143125 -18.51171875 179.41796875 C-19.56692824 177.30754977 -20.61868876 175.19540459 -21.66796875 173.08203125 C-22.81736341 170.79839878 -23.99040357 168.52644904 -25.19140625 166.26953125 C-30.99756248 155.20033362 -35.14382416 143.63937677 -37.8203125 131.42578125 C-40.86469321 120.23470578 -53.97484658 113.13756355 -63.4453125 107.55078125 C-80.53589614 97.93274394 -80.53589614 97.93274394 -99.4453125 94.55078125 Z M46.5546875 119.55078125 C45.97895996 120.01726074 45.40323242 120.48374023 44.81005859 120.96435547 C39.20272486 125.89353794 37.68774461 131.06944784 35.9296875 138.17578125 C35.34331446 140.33818372 34.75350076 142.49965629 34.16015625 144.66015625 C33.88349121 145.68689453 33.60682617 146.71363281 33.32177734 147.77148438 C29.95078154 159.9851751 23.87293263 170.65617691 17.5546875 181.55078125 C23.38430352 183.49398659 30.17186391 179.11563763 35.5546875 176.55078125 C45.71059176 171.33007544 55.12343153 165.28888464 63.5546875 157.55078125 C64.04275879 157.10508789 64.53083008 156.65939453 65.03369141 156.20019531 C79.66350495 142.68790477 88.93277235 126.44388724 95.9921875 107.98828125 C96.36283325 107.02474731 96.36283325 107.02474731 96.7409668 106.04174805 C98.27465746 101.8540344 99.06179508 97.95282048 99.5546875 93.55078125 C82.04448612 93.55078125 59.18823919 108.41482383 46.5546875 119.55078125 Z M-131.4453125 138.55078125 C-126.92283236 145.99632782 -121.53663901 152.33837333 -115.4453125 158.55078125 C-114.74664062 159.31777344 -114.04796875 160.08476562 -113.328125 160.875 C-109.94484375 164.12422671 -107.81991407 165.54605212 -103.0390625 165.5625 C-99.804401 165.12475139 -96.63253386 164.56093883 -93.43554688 163.90722656 C-90.13636344 163.3163522 -86.85285346 163.13569273 -83.5078125 162.92578125 C-81.76177734 162.81363281 -81.76177734 162.81363281 -79.98046875 162.69921875 C-78.72556641 162.62574219 -78.72556641 162.62574219 -77.4453125 162.55078125 C-80.12768954 158.25897798 -83.1262989 154.59692368 -86.51953125 150.84765625 C-89.43611597 147.36905217 -91.88163949 143.57570785 -94.35546875 139.7734375 C-97.72652539 136.18814549 -101.11011862 136.61723187 -105.8203125 136.3828125 C-114.5973601 136.33552237 -122.78568723 137.0563621 -131.4453125 138.55078125 Z M98.87890625 136.6953125 C94.42960611 137.84031453 93.59255536 139.54653333 91.2421875 143.42578125 C87.47867511 149.38433009 83.2725926 154.39889338 78.42578125 159.50390625 C76.44223693 161.21159454 76.44223693 161.21159454 76.5546875 162.55078125 C77.21476807 162.60613037 77.87484863 162.66147949 78.55493164 162.71850586 C81.57586373 162.97300886 84.59652319 163.23062023 87.6171875 163.48828125 C88.65552734 163.57529297 89.69386719 163.66230469 90.76367188 163.75195312 C91.77880859 163.83896484 92.79394531 163.92597656 93.83984375 164.015625 C95.32665649 164.13768311 95.32665649 164.13768311 96.84350586 164.26220703 C99.5546875 164.55078125 99.5546875 164.55078125 103.4375 165.4140625 C106.70587728 165.85992692 106.70587728 165.85992692 109.51171875 163.62890625 C110.48442703 162.70776323 111.43554939 161.7634423 112.3671875 160.80078125 C112.87491699 160.30433105 113.38264648 159.80788086 113.90576172 159.29638672 C115.48111494 157.73772468 117.02059816 156.14999471 118.5546875 154.55078125 C119.04533691 154.04772461 119.53598633 153.54466797 120.04150391 153.02636719 C126.47733433 146.56239176 126.47733433 146.56239176 130.5546875 138.55078125 C119.89393608 136.53728351 109.69173447 136.27015347 98.87890625 136.6953125 Z M66.96875 175.46875 C60.52404894 175.52089159 56.30048129 178.3619744 51.15063477 181.89697266 C40.66300078 189.02388945 28.7127578 193.19898447 16.5546875 196.55078125 C19.29128427 199.93551936 23.02922605 201.3276164 26.9296875 202.98828125 C27.64866211 203.29540039 28.36763672 203.60251953 29.10839844 203.91894531 C57.89368136 215.99677559 90.17930766 216.85584186 119.51074219 205.81445312 C126.45700245 202.95532612 133.07414328 199.33528511 139.5546875 195.55078125 C138.88879144 192.54018826 138.88879144 192.54018826 136.95092773 191.46337891 C136.26200439 191.1338623 135.57308105 190.8043457 134.86328125 190.46484375 C134.09185791 190.09375488 133.32043457 189.72266602 132.52563477 189.34033203 C131.68959717 188.95603027 130.85355957 188.57172852 129.9921875 188.17578125 C128.70042603 187.57805908 128.70042603 187.57805908 127.38256836 186.96826172 C107.41989114 177.93196181 88.58117211 176.15434043 66.96875 175.46875 Z M-140.4453125 193.55078125 C-140.4453125 194.21078125 -140.4453125 194.87078125 -140.4453125 195.55078125 C-109.60739352 211.70788242 -77.16323168 219.22492947 -43 208.96875 C-34.18545951 206.1842355 -25.45907059 203.23807372 -17.4453125 198.55078125 C-17.4453125 197.89078125 -17.4453125 197.23078125 -17.4453125 196.55078125 C-17.97261963 196.380625 -18.49992676 196.21046875 -19.04321289 196.03515625 C-32.01017952 191.80242314 -45.01600258 187.42312719 -55.85546875 178.8671875 C-59.55412066 176.19102282 -63.0769689 175.69487767 -67.5703125 175.61328125 C-68.34383057 175.58733887 -69.11734863 175.56139648 -69.91430664 175.53466797 C-95.10558514 175.01733138 -118.70371242 180.81243351 -140.4453125 193.55078125 Z " fill="#0891B2" transform="translate(621.4453125,8.44921875)"/>
<path d="M0 0 C0.74886475 0.00523682 1.49772949 0.01047363 2.26928711 0.01586914 C3.07817383 0.0190918 3.88706055 0.02231445 4.72045898 0.02563477 C5.5705957 0.03401367 6.42073242 0.04239258 7.29663086 0.05102539 C8.15063477 0.05553711 9.00463867 0.06004883 9.88452148 0.06469727 C12.00108749 0.07652166 14.11761771 0.0944577 16.23413086 0.11352539 C18.99021477 5.13953573 20.58959333 10.19088828 22.15209961 15.66821289 C22.41420731 16.56976105 22.676315 17.4713092 22.94636536 18.400177 C23.7768768 21.26142206 24.59936186 24.12490201 25.42163086 26.98852539 C25.9855544 28.93659544 26.55000195 30.88451388 27.11499023 32.83227539 C28.49410923 37.59095845 29.86603774 42.35166131 31.23413086 47.11352539 C32.96861857 44.51179383 33.80011847 42.75006488 34.73046875 39.84155273 C35.00738052 38.98411469 35.2842923 38.12667664 35.56959534 37.24325562 C35.86236862 36.32130402 36.15514191 35.39935242 36.45678711 34.44946289 C36.76233017 33.50164948 37.06787323 32.55383606 37.38267517 31.57730103 C38.35840338 28.54910589 39.32800293 25.5189985 40.29663086 22.48852539 C41.2693845 19.45109795 42.24348574 16.41412927 43.22129822 13.37832642 C43.82983149 11.48851214 44.43534127 9.59772123 45.03761292 7.7059021 C45.31137253 6.85476837 45.58513214 6.00363464 45.8671875 5.12670898 C46.10764297 4.37408783 46.34809845 3.62146667 46.59584045 2.84603882 C47.23413086 1.11352539 47.23413086 1.11352539 48.23413086 0.11352539 C54.17413086 0.11352539 60.11413086 0.11352539 66.23413086 0.11352539 C66.23413086 27.17352539 66.23413086 54.23352539 66.23413086 82.11352539 C61.28413086 82.11352539 56.33413086 82.11352539 51.23413086 82.11352539 C49.17723626 80.05663079 49.97666009 75.75796541 49.91772461 72.92211914 C49.89694351 72.10228043 49.87616241 71.28244171 49.85475159 70.4377594 C49.78916592 67.80893638 49.7303296 65.18001035 49.67163086 62.55102539 C49.62845419 60.77301978 49.58484019 58.99502474 49.54077148 57.21704102 C49.43347543 52.84930905 49.33223382 48.48147312 49.23413086 44.11352539 C48.90614502 45.22912842 48.57815918 46.34473145 48.24023438 47.49414062 C47.02652461 51.61928932 45.80859166 55.74318087 44.58935547 59.86669922 C44.06150221 61.65411732 43.53480651 63.44187767 43.00927734 65.22998047 C42.25521527 67.79492865 41.4970462 70.35863117 40.73803711 72.92211914 C40.50258682 73.72628769 40.26713654 74.53045624 40.02455139 75.35899353 C38.34800257 80.99965368 38.34800257 80.99965368 37.23413086 82.11352539 C35.38125584 82.18579041 33.52579208 82.19733759 31.67163086 82.17602539 C30.6597168 82.16700195 29.64780273 82.15797852 28.60522461 82.14868164 C27.82276367 82.13708008 27.04030273 82.12547852 26.23413086 82.11352539 C23.97650367 77.14106602 22.32689535 72.27638655 20.97241211 66.99243164 C20.67913277 65.8752903 20.67913277 65.8752903 20.37992859 64.73558044 C19.76373094 62.38369223 19.15506328 60.029933 18.54663086 57.67602539 C18.12720762 56.06977531 17.70729039 54.46365414 17.28686523 52.85766602 C16.26357347 48.94441866 15.24702467 45.02947641 14.23413086 41.11352539 C14.24573242 42.39743164 14.25733398 43.68133789 14.26928711 45.00415039 C14.3448949 57.40973486 13.97894921 69.73092037 13.23413086 82.11352539 C7.95413086 82.11352539 2.67413086 82.11352539 -2.76586914 82.11352539 C-2.78842016 71.56970846 -2.80678423 61.02590742 -2.81768131 50.48207188 C-2.82291014 45.58667165 -2.83000778 40.69128871 -2.84130859 35.79589844 C-2.85213748 31.07564561 -2.85814598 26.35540947 -2.86074638 21.63514519 C-2.86260063 19.83013585 -2.86622123 18.02512747 -2.8715992 16.2201252 C-2.87880966 13.70092895 -2.87986008 11.18180249 -2.87939453 8.66259766 C-2.88298981 7.90878311 -2.88658508 7.15496857 -2.89028931 6.37831116 C-2.8778227 0.18501141 -2.8778227 0.18501141 0 0 Z " fill="#0891B2" transform="translate(1231.765869140625,105.886474609375)"/>
<path d="M0 0 C0.68578125 -0.03738281 1.3715625 -0.07476562 2.078125 -0.11328125 C4.0859375 -0.1484375 4.0859375 -0.1484375 7.625 0.375 C10.30575026 4.05218089 11.98367197 8.25695967 13.76171875 12.42578125 C14.04602249 13.08458786 14.33032623 13.74339447 14.62324524 14.42216492 C15.52299214 16.50919552 16.41781464 18.5982953 17.3125 20.6875 C17.92480509 22.11016601 18.53743203 23.53269355 19.15039062 24.95507812 C20.64565494 28.42679464 22.13650907 31.90037435 23.625 35.375 C23.66258423 33.83791382 23.66258423 33.83791382 23.70092773 32.26977539 C23.79484484 28.48090324 23.89510317 24.69222119 23.99731445 20.90356445 C24.04072297 19.26135697 24.08239358 17.61910261 24.12231445 15.97680664 C24.1798744 13.62111255 24.24360892 11.26565572 24.30859375 8.91015625 C24.33366249 7.80233543 24.33366249 7.80233543 24.35923767 6.6721344 C24.51112829 1.48887171 24.51112829 1.48887171 25.625 0.375 C30.905 0.375 36.185 0.375 41.625 0.375 C41.625 27.435 41.625 54.495 41.625 82.375 C36.345 82.375 31.065 82.375 25.625 82.375 C23.98864287 78.83727821 22.35270621 75.29936621 20.71777344 71.76098633 C19.89303202 69.97651541 19.06761727 68.19235574 18.2421875 66.40820312 C15.32083451 60.0845427 12.43385128 53.74945618 9.625 47.375 C9.59994385 48.39972412 9.5748877 49.42444824 9.54907227 50.48022461 C9.45515516 54.26909676 9.35489683 58.05777881 9.25268555 61.84643555 C9.20927703 63.48864303 9.16760642 65.13089739 9.12768555 66.77319336 C9.0701256 69.12888745 9.00639108 71.48434428 8.94140625 73.83984375 C8.91633751 74.94766457 8.91633751 74.94766457 8.89076233 76.0778656 C8.73887171 81.26112829 8.73887171 81.26112829 7.625 82.375 C4.92845146 82.44819621 2.25808542 82.46742537 -0.4375 82.4375 C-1.19611328 82.43298828 -1.95472656 82.42847656 -2.73632812 82.42382812 C-4.61591871 82.4120068 -6.49546899 82.39407078 -8.375 82.375 C-8.39812343 71.83118688 -8.41591509 61.28737975 -8.42681217 50.74354649 C-8.432041 45.84814626 -8.43913864 40.95276332 -8.45043945 36.05737305 C-8.46126834 31.33712022 -8.46727684 26.61688408 -8.46987724 21.8966198 C-8.47173149 20.09161046 -8.47535209 18.28660208 -8.48073006 16.48159981 C-8.48794052 13.96240356 -8.48899094 11.4432771 -8.48852539 8.92407227 C-8.49212067 8.17025772 -8.49571594 7.41644318 -8.49942017 6.63978577 C-8.48500048 -0.52378855 -6.54389321 0.13379707 0 0 Z " fill="#0891B2" transform="translate(953.375,105.625)"/>
<path d="M0 0 C5.34817545 4.45681287 6.60127933 9.85976623 7.6875 16.40625 C7.9497246 19.47935649 7.99183445 22.53006266 7.98828125 25.61328125 C7.99256638 26.45992844 7.9968515 27.30657562 8.00126648 28.17887878 C8.00696951 29.95786654 8.00754005 31.7368776 8.00317383 33.51586914 C8.00001996 36.20175014 8.02350251 38.8865207 8.04882812 41.57226562 C8.13534204 64.06966236 8.13534204 64.06966236 2.90405273 70.64941406 C-4.11123692 77.5800701 -11.84713232 78.67922346 -21.3125 78.78125 C-29.3332364 78.71099299 -36.10094913 78.02570838 -42.6875 73.09375 C-47.64228959 68.02098923 -49.40586721 62.62715274 -49.48950195 55.6887207 C-49.50233719 54.75707596 -49.51517242 53.82543121 -49.52839661 52.86555481 C-49.53578354 51.86449203 -49.54317047 50.86342926 -49.55078125 49.83203125 C-49.558853 48.79362595 -49.56692474 47.75522064 -49.57524109 46.68534851 C-49.58906444 44.48727072 -49.5997944 42.28917162 -49.60766602 40.09106445 C-49.61917632 37.85174232 -49.63961291 35.61244741 -49.66918945 33.37329102 C-49.71202251 30.13018222 -49.72805824 26.8878884 -49.73828125 23.64453125 C-49.76454338 22.15811882 -49.76454338 22.15811882 -49.79133606 20.64167786 C-49.7664753 12.59085628 -48.02867796 5.92482557 -42.3125 0.03125 C-31.12975125 -8.58928437 -11.34418105 -7.86773847 0 0 Z M-31.3125 17.40625 C-32.81680771 20.41486542 -32.49599114 23.52693764 -32.515625 26.828125 C-32.52132507 27.56573059 -32.52702515 28.30333618 -32.53289795 29.06329346 C-32.54235133 30.62681646 -32.54888327 32.19035941 -32.55273438 33.75390625 C-32.56240619 36.13317268 -32.59341079 38.51156264 -32.625 40.890625 C-32.6315337 42.41145322 -32.63678273 43.9322876 -32.640625 45.453125 C-32.6529718 46.15959167 -32.6653186 46.86605835 -32.67803955 47.59393311 C-32.6572198 52.26831755 -31.81726789 55.45760888 -29.3125 59.40625 C-24.85710974 62.37651017 -20.53096365 62.27599394 -15.3125 61.40625 C-12.57365816 59.67958884 -11.95715374 58.36662673 -10.3125 55.40625 C-9.01234144 49.29838239 -9.12862256 43.24755683 -9.125 37.03125 C-9.11275391 35.93296875 -9.10050781 34.8346875 -9.08789062 33.703125 C-9.07527238 26.68737982 -9.16581931 20.13960772 -12.75 13.90625 C-19.36020157 10.03686371 -26.85361191 11.16380667 -31.3125 17.40625 Z " fill="#0891B2" transform="translate(423.3125,108.59375)"/>
<path d="M0 0 C2.06553096 -0.00959819 4.13002003 -0.04055288 6.1953125 -0.07226562 C14.42941247 -0.14047902 22.21946185 -0.19082607 28.94140625 5.07226562 C29.46863281 5.72582031 29.99585938 6.379375 30.5390625 7.05273438 C31.08433594 7.69855469 31.62960937 8.344375 32.19140625 9.00976562 C36.51681341 15.85133762 35.96848287 23.25185342 35.9765625 31.05273438 C36.00105469 32.28572266 36.02554687 33.51871094 36.05078125 34.7890625 C36.07639015 42.78330666 35.5115265 49.74181637 30.09130859 55.9777832 C28.6015625 57.24023438 28.6015625 57.24023438 26.6015625 57.24023438 C26.90449219 57.92649902 27.20742187 58.61276367 27.51953125 59.31982422 C28.88399866 62.41664044 30.24284565 65.51589108 31.6015625 68.61523438 C32.07851562 69.69546875 32.55546875 70.77570313 33.046875 71.88867188 C33.49804688 72.91992188 33.94921875 73.95117188 34.4140625 75.01367188 C34.83300781 75.96677246 35.25195312 76.91987305 35.68359375 77.90185547 C36.6015625 80.24023438 36.6015625 80.24023438 36.6015625 82.24023438 C30.6615625 82.24023438 24.7215625 82.24023438 18.6015625 82.24023438 C17.09687599 79.11741278 15.5976422 75.99217573 14.1015625 72.86523438 C13.67230469 71.97578125 13.24304687 71.08632812 12.80078125 70.16992188 C12.39472656 69.31914062 11.98867187 68.46835938 11.5703125 67.59179688 C11.19326172 66.80627441 10.81621094 66.02075195 10.42773438 65.21142578 C9.6015625 63.24023438 9.6015625 63.24023438 9.6015625 61.24023438 C7.6215625 61.24023438 5.6415625 61.24023438 3.6015625 61.24023438 C3.6015625 68.17023438 3.6015625 75.10023438 3.6015625 82.24023438 C-2.0084375 82.24023438 -7.6184375 82.24023438 -13.3984375 82.24023438 C-13.42098852 71.69641744 -13.43935258 61.15261641 -13.45024967 50.60878086 C-13.4554785 45.71338063 -13.46257614 40.8179977 -13.47387695 35.92260742 C-13.48470584 31.2023546 -13.49071434 26.48211845 -13.49331474 21.76185417 C-13.49516899 19.95684484 -13.49878959 18.15183646 -13.50416756 16.34683418 C-13.51137802 13.82763793 -13.51242844 11.30851147 -13.51196289 8.78930664 C-13.51555817 8.0354921 -13.51915344 7.28167755 -13.52285767 6.50502014 C-13.50473463 -2.49834526 -7.74454919 0.02175435 0 0 Z M3.6015625 18.24023438 C3.6015625 26.82023437 3.6015625 35.40023437 3.6015625 44.24023438 C11.74692021 44.72904528 11.74692021 44.72904528 17.6015625 41.24023438 C19.22997951 37.98340035 18.86951827 34.44065103 18.9140625 30.86523438 C18.94306641 30.09695312 18.97207031 29.32867187 19.00195312 28.53710938 C19.04089854 25.07396368 18.89539204 22.80032001 17.26953125 19.70117188 C13.50049157 17.35970069 13.50049157 17.35970069 3.6015625 18.24023438 Z " fill="#0891B2" transform="translate(1095.3984375,105.759765625)"/>
<path d="M0 0 C0.70253906 0.00386719 1.40507812 0.00773437 2.12890625 0.01171875 C2.83144531 0.00785156 3.53398437 0.00398438 4.2578125 0 C9.50229247 0.01010497 9.50229247 0.01010497 10.62890625 1.13671875 C10.716816 3.42823292 10.73584663 5.72244399 10.7265625 8.015625 C10.72514755 8.70228745 10.7237326 9.38894989 10.72227478 10.09642029 C10.71666104 12.29739676 10.70410632 14.49827284 10.69140625 16.69921875 C10.68639301 18.18814958 10.6818298 19.67708199 10.67773438 21.16601562 C10.66753646 24.8229868 10.64796404 28.47973992 10.62890625 32.13671875 C16.89890625 32.13671875 23.16890625 32.13671875 29.62890625 32.13671875 C29.62890625 21.57671875 29.62890625 11.01671875 29.62890625 0.13671875 C34.90890625 0.13671875 40.18890625 0.13671875 45.62890625 0.13671875 C47.34614031 1.85395281 46.75484119 4.03704042 46.76443481 6.32693481 C46.76241058 7.06982758 46.76038635 7.81272034 46.75830078 8.578125 C46.7600531 9.35695038 46.76180542 10.13577576 46.76361084 10.9382019 C46.76802974 13.52522986 46.76509124 16.11219004 46.76171875 18.69921875 C46.76239178 20.48901381 46.76336179 22.27880877 46.76461792 24.06860352 C46.76609494 27.82471586 46.76394019 31.58080447 46.75927734 35.33691406 C46.75358005 40.16272368 46.75685903 44.9884777 46.76284981 49.81428528 C46.7664553 53.51160098 46.76531689 57.20890339 46.76272202 60.90621948 C46.76205271 62.68610643 46.76288128 64.46599457 46.76520157 66.24588013 C46.7677279 68.72905697 46.76388779 71.21214249 46.75830078 73.6953125 C46.76032501 74.43820526 46.76234924 75.18109802 46.76443481 75.94650269 C46.74316887 81.02245613 46.74316887 81.02245613 45.62890625 82.13671875 C40.34890625 82.13671875 35.06890625 82.13671875 29.62890625 82.13671875 C29.62890625 70.91671875 29.62890625 59.69671875 29.62890625 48.13671875 C23.35890625 48.13671875 17.08890625 48.13671875 10.62890625 48.13671875 C10.64050781 50.50730469 10.65210938 52.87789062 10.6640625 55.3203125 C10.67185321 57.60717637 10.67792989 59.89403879 10.68383789 62.1809082 C10.68887782 63.77466489 10.69570975 65.36841694 10.7043457 66.9621582 C10.71642624 69.24822128 10.7221378 71.53422342 10.7265625 73.8203125 C10.73172379 74.53698593 10.73688507 75.25365936 10.74220276 75.99205017 C10.74239888 77.70735547 10.69082632 79.42253141 10.62890625 81.13671875 C9.62890625 82.13671875 9.62890625 82.13671875 6.03125 82.234375 C4.54293758 82.22770095 3.05464193 82.21574058 1.56640625 82.19921875 C0.80779297 82.19470703 0.04917969 82.19019531 -0.73242188 82.18554688 C-2.61201246 82.17372555 -4.49156274 82.15578953 -6.37109375 82.13671875 C-6.39421718 71.59290563 -6.41200884 61.0490985 -6.42290592 50.50526524 C-6.42813475 45.60986501 -6.43523239 40.71448207 -6.4465332 35.8190918 C-6.45736209 31.09883897 -6.46337059 26.37860283 -6.46597099 21.65833855 C-6.46782524 19.85332921 -6.47144584 18.04832083 -6.47682381 16.24331856 C-6.48403427 13.72412231 -6.48508469 11.20499585 -6.48461914 8.68579102 C-6.48821442 7.93197647 -6.49180969 7.17816193 -6.49551392 6.40150452 C-6.48309362 0.23121014 -6.19028947 0.01192734 0 0 Z " fill="#0891B2" transform="translate(138.37109375,103.86328125)"/>
<path d="M0 0 C1.48831242 0.00667405 2.97660807 0.01863442 4.46484375 0.03515625 C5.22345703 0.03966797 5.98207031 0.04417969 6.76367188 0.04882812 C8.64326246 0.06064945 10.52281274 0.07858547 12.40234375 0.09765625 C12.41114311 1.14882126 12.41114311 1.14882126 12.42012024 2.22122192 C12.47814638 8.8418339 12.55027934 15.46212665 12.63805866 22.08241463 C12.68268952 25.48558282 12.72196105 28.88863332 12.7487793 32.29199219 C12.77988604 36.20924192 12.83467267 40.12599201 12.890625 44.04296875 C12.89701492 45.25880646 12.90340485 46.47464417 12.9099884 47.72732544 C12.96630458 55.86300479 12.96630458 55.86300479 16.40234375 63.09765625 C20.4300635 65.78280275 23.6703409 65.77840052 28.40234375 65.09765625 C31.2188595 63.45468873 32.94308786 62.43982314 34.01550293 59.30570984 C34.47518295 56.68189643 34.55783554 54.18335759 34.59179688 51.51879883 C34.61687317 49.84235039 34.61687317 49.84235039 34.64245605 48.1320343 C34.65603149 46.93088486 34.66960693 45.72973541 34.68359375 44.4921875 C34.70200317 43.25724045 34.7204126 42.0222934 34.73937988 40.74992371 C34.80815843 36.13089998 34.86873624 31.51178676 34.92840576 26.89263916 C34.98730767 22.36323368 35.05341821 17.83396906 35.12109375 13.3046875 C35.13466919 12.09746536 35.14824463 10.89024323 35.16223145 9.6464386 C35.18730774 7.98417488 35.18730774 7.98417488 35.21289062 6.28833008 C35.23168274 4.81750725 35.23168274 4.81750725 35.25085449 3.31697083 C35.40234375 1.09765625 35.40234375 1.09765625 36.40234375 0.09765625 C38.91370479 -0.00209407 41.3913779 -0.04116558 43.90234375 -0.02734375 C44.60488281 -0.03121094 45.30742188 -0.03507812 46.03125 -0.0390625 C51.27572997 -0.02895753 51.27572997 -0.02895753 52.40234375 1.09765625 C52.51727216 2.97185331 52.56200665 4.85038986 52.5793457 6.72802734 C52.59859856 8.53658707 52.59859856 8.53658707 52.61824036 10.38168335 C52.62562729 11.69818878 52.63301422 13.01469421 52.640625 14.37109375 C52.64470053 15.04046589 52.64877605 15.70983803 52.65297508 16.39949417 C52.6738767 19.95236149 52.68815235 23.50518988 52.69750977 27.05810547 C52.70849531 30.70389593 52.74278979 34.34906259 52.78268147 37.99463463 C52.80904209 40.81565355 52.81721933 43.63652947 52.82079124 46.45766068 C52.82794688 48.44658405 52.85431852 50.43540897 52.88117981 52.42416382 C52.86150023 60.74669569 52.34265053 69.42753175 46.73994446 76.06796265 C40.50477543 82.07570637 32.86919948 83.62854133 24.46484375 83.47265625 C23.27797974 83.4574292 23.27797974 83.4574292 22.06713867 83.44189453 C13.52399139 83.214641 7.20414322 81.65882983 0.83984375 75.70703125 C-4.07670771 70.20263125 -4.72187047 63.93420294 -4.72705078 56.85449219 C-4.73020294 55.61681091 -4.7333551 54.37912964 -4.73660278 53.10394287 C-4.73481356 51.7633053 -4.73276275 50.42266805 -4.73046875 49.08203125 C-4.73114269 47.70151757 -4.73211347 46.321004 -4.73336792 44.94049072 C-4.73483867 42.05569319 -4.73270906 39.17092672 -4.72802734 36.28613281 C-4.72230896 32.58143541 -4.72562625 28.87681013 -4.73159981 25.17211533 C-4.73520401 22.32577973 -4.73406787 19.4794614 -4.73147202 16.63312531 C-4.73080346 15.26631919 -4.73162869 13.89951152 -4.73395157 12.53270721 C-4.73647804 10.62955249 -4.73194766 8.72639229 -4.72705078 6.82324219 C-4.72585739 5.19705963 -4.72585739 5.19705963 -4.72463989 3.5380249 C-4.52132999 -0.36917997 -4.07582001 0.11063572 0 0 Z " fill="#0891B2" transform="translate(1155.59765625,105.90234375)"/>
<path d="M0 0 C6.0035379 4.01652624 9.21950468 8.3963236 12 15 C10.58680023 16.12935196 9.16928595 17.25330626 7.75 18.375 C6.96109375 19.00148438 6.1721875 19.62796875 5.359375 20.2734375 C3.28818811 21.78910737 1.32930503 22.94219634 -1 24 C-1.49628906 23.43410156 -1.99257813 22.86820313 -2.50390625 22.28515625 C-6.88955099 17.52287036 -6.88955099 17.52287036 -12.6875 14.875 C-15.96818038 14.99879926 -18.09755518 15.50480115 -21 17 C-21.67154684 19.28341743 -21.67154684 19.28341743 -21 22 C-17.43076597 25.17899778 -12.9746729 27.06117052 -8.625 28.9375 C0.29303891 32.78812129 8.77465341 37.28238159 13.1328125 46.359375 C15.6275755 53.95604071 14.40533814 61.74381938 11.12890625 68.87890625 C7.91137218 74.92430764 3.77577479 78.40807507 -2.76953125 80.58984375 C-11.65186091 82.22319684 -21.33926205 82.13209593 -29 77 C-37.31967804 70.77468536 -37.31967804 70.77468536 -39 66 C-38.94182294 62.76794093 -37.91804878 61.9205481 -35.56640625 59.640625 C-34.57511719 58.85171875 -33.58382813 58.0628125 -32.5625 57.25 C-31.57378906 56.45078125 -30.58507812 55.6515625 -29.56640625 54.828125 C-27 53 -27 53 -25 53 C-23.66653588 54.95030467 -22.56108684 56.99004369 -21.4140625 59.0546875 C-19.75858587 61.33211115 -18.65886838 62.10397109 -16 63 C-13.62698611 63.02977744 -13.62698611 63.02977744 -11.25 62.625 C-10.45078125 62.51414062 -9.6515625 62.40328125 -8.828125 62.2890625 C-8.22484375 62.19367188 -7.6215625 62.09828125 -7 62 C-5.10607212 57.84745164 -5.10607212 57.84745164 -5.9375 53.5390625 C-8.80935637 50.00363325 -12.05152745 48.7980524 -16.1875 47.0625 C-25.48450589 42.9211774 -34.5521321 38.30850871 -39.109375 28.6484375 C-41.06632472 22.82908702 -40.96043969 16.31809501 -38.4375 10.6875 C-34.03240144 3.23389032 -28.08443045 0.11783753 -19.921875 -2.30859375 C-12.85977821 -3.97970489 -6.52765304 -3.21256223 0 0 Z " fill="#0891B2" transform="translate(305,106)"/>
<path d="M0 0 C34.5 0 34.5 0 42.375 5.25 C50.09056433 13.33297216 49.32171494 24.61086358 49.140625 35.0859375 C48.83527288 43.58490491 47.94595482 49.12861058 41.86328125 55.375 C34.30360057 61.96792906 25.44827337 61.10498082 16 61 C16 67.93 16 74.86 16 82 C10.72 82 5.44 82 0 82 C0 54.94 0 27.88 0 0 Z M16 18 C16 26.58 16 35.16 16 44 C24.13919495 44.55423413 24.13919495 44.55423413 30 41 C31.76307515 37.40580118 32.27238866 34.48518154 32.25 30.5 C32.25515625 29.5821875 32.2603125 28.664375 32.265625 27.71875 C31.97651096 24.75958273 31.35737557 22.64235779 30 20 C26.07549967 16.98304964 26.07549967 16.98304964 16 18 Z " fill="#0891B2" transform="translate(67,104)"/>
<path d="M0 0 C6.1055471 -0.02464513 12.21106551 -0.04283371 18.31665039 -0.05493164 C20.39543156 -0.05997288 22.47420916 -0.06680574 24.55297852 -0.07543945 C27.53402586 -0.08751422 30.51502649 -0.09323024 33.49609375 -0.09765625 C34.89921059 -0.10539818 34.89921059 -0.10539818 36.33067322 -0.11329651 C37.19149002 -0.11337204 38.05230682 -0.11344757 38.93920898 -0.11352539 C40.08171364 -0.11685631 40.08171364 -0.11685631 41.24729919 -0.12025452 C43 0 43 0 44 1 C44.09975032 3.51136104 44.13882183 5.98903415 44.125 8.5 C44.13080078 9.55380859 44.13080078 9.55380859 44.13671875 10.62890625 C44.12661378 15.87338622 44.12661378 15.87338622 43 17 C41.07332493 17.08748207 39.14348139 17.10697334 37.21484375 17.09765625 C36.04501953 17.09443359 34.87519531 17.09121094 33.66992188 17.08789062 C32.43822266 17.07951172 31.20652344 17.07113281 29.9375 17.0625 C28.08415039 17.05573242 28.08415039 17.05573242 26.19335938 17.04882812 C23.12888587 17.03699618 20.06443707 17.01906008 17 17 C17 21.95 17 26.9 17 32 C18.43214844 31.98839844 19.86429688 31.97679687 21.33984375 31.96484375 C23.20572787 31.95546745 25.07161339 31.94636708 26.9375 31.9375 C27.88302734 31.92912109 28.82855469 31.92074219 29.80273438 31.91210938 C31.15141602 31.90727539 31.15141602 31.90727539 32.52734375 31.90234375 C33.77632446 31.89448853 33.77632446 31.89448853 35.05053711 31.88647461 C37 32 37 32 38 33 C38.09975032 35.51136104 38.13882183 37.98903415 38.125 40.5 C38.13080078 41.55380859 38.13080078 41.55380859 38.13671875 42.62890625 C38.12661378 47.87338622 38.12661378 47.87338622 37 49 C35.5112814 49.08669432 34.018555 49.10703494 32.52734375 49.09765625 C31.62822266 49.09443359 30.72910156 49.09121094 29.80273438 49.08789062 C28.38444336 49.07532227 28.38444336 49.07532227 26.9375 49.0625 C25.98810547 49.05798828 25.03871094 49.05347656 24.06054688 49.04882812 C21.70700469 49.03700128 19.35349468 49.01906521 17 49 C17 54.61 17 60.22 17 66 C25.91 66 34.82 66 44 66 C44 71.28 44 76.56 44 82 C29.48 82 14.96 82 0 82 C-0.7232844 76.93700919 -1.12624663 72.58167887 -1.12939453 67.53588867 C-1.13114685 66.82606842 -1.13289917 66.11624817 -1.13470459 65.38491821 C-1.13906992 63.06257612 -1.1362056 60.74031147 -1.1328125 58.41796875 C-1.13348669 56.79608648 -1.13445768 55.17420431 -1.13571167 53.55232239 C-1.1371811 50.16581249 -1.13505699 46.77932907 -1.13037109 43.39282227 C-1.12465139 39.0470709 -1.12797168 34.70138099 -1.13394356 30.35563183 C-1.13755012 27.01257358 -1.13641054 23.66953001 -1.13381577 20.32647133 C-1.13314794 18.72324936 -1.13396989 17.12002607 -1.13629532 15.51680565 C-1.13882586 13.2835471 -1.13497662 11.05038966 -1.12939453 8.81713867 C-1.12859894 7.54585617 -1.12780334 6.27457367 -1.12698364 4.96476746 C-1 2 -1 2 0 0 Z " fill="#0891B2" transform="translate(881,106)"/>
<path d="M0 0 C0.86825912 0.00222061 1.73651825 0.00444122 2.63108826 0.00672913 C3.61202957 0.00680466 4.59297089 0.00688019 5.6036377 0.00695801 C6.6702916 0.01211929 7.7369455 0.01728058 8.83592224 0.02259827 C9.92211349 0.02401321 11.00830475 0.02542816 12.12741089 0.02688599 C15.61230674 0.03250403 19.09713941 0.04505959 22.58201599 0.05775452 C24.93813486 0.06276719 27.29425473 0.0673305 29.65037537 0.07142639 C35.44011063 0.08247933 41.2298088 0.09923501 47.01951599 0.12025452 C47.11294214 2.97909461 47.18078237 5.83483336 47.23435974 8.69447327 C47.26316223 9.49590759 47.29196472 10.29734192 47.32164001 11.12306213 C47.4220598 18.28573122 45.36334256 22.70772193 41.14451599 28.49916077 C37.15398083 34.23825137 33.7421794 40.32235561 30.24263 46.36741638 C28.37673923 49.58733029 26.49748021 52.79937074 24.61717224 56.01087952 C23.97272156 57.11463928 23.32827087 58.21839905 22.66429138 59.35560608 C21.50192147 61.30939513 20.28057726 63.22866261 19.01951599 65.12025452 C20.28396545 65.15783875 20.28396545 65.15783875 21.57395935 65.19618225 C24.69193273 65.29113607 27.80973103 65.39037899 30.92747498 65.49256897 C32.27865746 65.53596675 33.62989652 65.57763821 34.98118591 65.61756897 C36.919883 65.67515403 38.85837875 65.73939749 40.79685974 65.80384827 C41.9646698 65.84050598 43.13247986 65.8771637 44.3356781 65.91493225 C47.01951599 66.12025452 47.01951599 66.12025452 48.01951599 67.12025452 C48.11860901 69.45185507 48.14922103 71.78655393 48.14451599 74.12025452 C48.14838318 76.03837952 48.14838318 76.03837952 48.15232849 77.99525452 C48.01951599 81.12025452 48.01951599 81.12025452 47.01951599 82.12025452 C45.49016969 82.21864666 43.95632034 82.2482399 42.42381287 82.24964905 C40.95724243 82.25437729 40.95724243 82.25437729 39.46104431 82.25920105 C38.39752747 82.25717682 37.33401062 82.25515259 36.23826599 82.25306702 C34.61253662 82.25450211 34.61253662 82.25450211 32.95396423 82.25596619 C30.6572921 82.25664817 28.36061804 82.25479263 26.06394958 82.25062561 C22.53477171 82.24527763 19.00572112 82.25057002 15.47654724 82.25697327 C13.25128654 82.25631249 11.02602592 82.25503133 8.80076599 82.25306702 C7.73724915 82.25509125 6.6737323 82.25711548 5.57798767 82.25920105 C4.60027405 82.25604889 3.62256042 82.25289673 2.61521912 82.24964905 C1.7499762 82.24885345 0.88473328 82.24805786 -0.00672913 82.24723816 C-1.98048401 82.12025452 -1.98048401 82.12025452 -2.98048401 81.12025452 C-5.11014161 69.13861568 -0.79018257 61.63823834 5.34519958 51.81459045 C7.22831204 48.78425668 9.05772101 45.7249415 10.88279724 42.65931702 C13.47325514 38.3102054 16.07766455 33.97023072 18.69920349 29.63978577 C21.20106411 25.49918544 23.6463884 21.33583543 26.01951599 17.12025452 C24.75506653 17.12810974 24.75506653 17.12810974 23.46507263 17.13612366 C20.34723664 17.15313278 17.22942422 17.16568857 14.11155701 17.17518616 C12.76031213 17.18022508 11.40907273 17.18705629 10.05784607 17.19569397 C8.11931165 17.20777871 6.18073799 17.2129528 4.24217224 17.21791077 C2.49045715 17.22576599 2.49045715 17.22576599 0.70335388 17.23377991 C-1.98048401 17.12025452 -1.98048401 17.12025452 -2.98048401 16.12025452 C-3.08023433 13.60889347 -3.11930584 11.13122037 -3.10548401 8.62025452 C-3.1093512 7.91771545 -3.11321838 7.21517639 -3.11720276 6.49134827 C-3.10505862 0.18853842 -3.10505862 0.18853842 0 0 Z " fill="#0891B2" transform="translate(810.9804840087891,105.87974548339844)"/>
<path d="M0 0 C7.52969652 -0.02526648 15.0593822 -0.04283141 22.58911133 -0.05493164 C25.15291757 -0.0599737 27.71672091 -0.06680714 30.28051758 -0.07543945 C33.95655021 -0.08751064 37.63254498 -0.09322942 41.30859375 -0.09765625 C42.46274277 -0.10281754 43.61689178 -0.10797882 44.80601501 -0.11329651 C46.3975515 -0.11340981 46.3975515 -0.11340981 48.02124023 -0.11352539 C48.96055893 -0.115746 49.89987762 -0.11796661 50.86766052 -0.12025452 C53 0 53 0 54 1 C54.09975032 3.51136104 54.13882183 5.98903415 54.125 8.5 C54.13080078 9.55380859 54.13080078 9.55380859 54.13671875 10.62890625 C54.12661378 15.87338622 54.12661378 15.87338622 53 17 C47.06 17 41.12 17 35 17 C35 38.45 35 59.9 35 82 C29.72 82 24.44 82 19 82 C18 81 18 81 17.87974548 78.45005798 C17.88196609 77.31532547 17.88418671 76.18059296 17.88647461 75.01147461 C17.88655014 73.73022202 17.88662567 72.44896942 17.88670349 71.12889099 C17.89181091 69.72004152 17.89702691 68.31119244 17.90234375 66.90234375 C17.90420798 65.46887766 17.90563186 64.03541093 17.90663147 62.60194397 C17.91045628 58.82240043 17.92028623 55.0428951 17.93133545 51.2633667 C17.94155037 47.40930702 17.94612926 43.55524118 17.95117188 39.70117188 C17.96190854 32.13409713 17.97898451 24.56705391 18 17 C16.78441406 17.01160156 15.56882812 17.02320312 14.31640625 17.03515625 C12.73177236 17.04453278 11.14713682 17.05363313 9.5625 17.0625 C8.76005859 17.07087891 7.95761719 17.07925781 7.13085938 17.08789062 C5.08704779 17.0965143 3.04316098 17.0522815 1 17 C0 16 0 16 -0.09765625 12.40234375 C-0.0909822 10.91403133 -0.07902183 9.42573568 -0.0625 7.9375 C-0.05798828 7.17888672 -0.05347656 6.42027344 -0.04882812 5.63867188 C-0.0370068 3.75908129 -0.01907078 1.87953101 0 0 Z " fill="#0891B2" transform="translate(1012,106)"/>
<path d="M0 0 C13.36318545 -1.21025076 13.36318545 -1.21025076 16.93359375 1.4296875 C18.241717 3.56557399 19.11736593 5.65632486 20 8 C20.92723214 9.79700202 21.86482369 11.58869507 22.8125 13.375 C25 17.72307692 25 17.72307692 25 20 C25.66 20 26.32 20 27 20 C27.24492187 19.16210938 27.48984375 18.32421875 27.7421875 17.4609375 C29.161461 13.55573153 31.01857766 10.19028729 33.125 6.625 C33.49753906 5.98433594 33.87007812 5.34367187 34.25390625 4.68359375 C35.16434002 3.11951523 36.08148191 1.55934466 37 0 C41.95 0 46.9 0 52 0 C53 3 53 3 51.56884766 6.28588867 C50.85609618 7.66610817 50.13735606 9.04324443 49.4140625 10.41796875 C37.18933263 34.87494367 33.60189718 54.77302866 35 82 C29.39 82 23.78 82 18 82 C18.13664062 79.64875 18.27328125 77.2975 18.4140625 74.875 C19.37212628 49.51485528 13.58938786 30.71942064 1.60528564 8.44232178 C0.66580646 6.66397081 -0.17651801 4.83494706 -1 3 C-0.67 2.01 -0.34 1.02 0 0 Z " fill="#0891B2" transform="translate(201,104)"/>
<path d="M0 0 C5.28 0 10.56 0 16 0 C17.71723406 1.71723406 17.12593494 3.90032167 17.13552856 6.19021606 C17.13350433 6.93310883 17.1314801 7.67600159 17.12939453 8.44140625 C17.13114685 9.22023163 17.13289917 9.99905701 17.13470459 10.80148315 C17.13912349 13.38851111 17.13618499 15.97547129 17.1328125 18.5625 C17.13348553 20.35229506 17.13445554 22.14209002 17.13571167 23.93188477 C17.13718869 27.68799711 17.13503394 31.44408572 17.13037109 35.20019531 C17.1246738 40.02600493 17.12795278 44.85175895 17.13394356 49.67756653 C17.13754905 53.37488223 17.13641064 57.07218464 17.13381577 60.76950073 C17.13314646 62.54938768 17.13397503 64.32927582 17.13629532 66.10916138 C17.13882165 68.59233822 17.13498154 71.07542374 17.12939453 73.55859375 C17.13141876 74.30148651 17.13344299 75.04437927 17.13552856 75.80978394 C17.11426262 80.88573738 17.11426262 80.88573738 16 82 C10.72 82 5.44 82 0 82 C0 54.94 0 27.88 0 0 Z " fill="#0891B2" transform="translate(337,104)"/>
</svg>
