<svg version="1.2" xmlns="http://www.w3.org/2000/svg" viewBox="0 0 339 62" width="339" height="62">
	<style>
		.s0 { fill: #0c94b4;stroke: #0c94b4;stroke-miterlimit:100;stroke-width: 1.4 } 
		.s1 { fill: #0c94b4 } 
	</style>
	<path fill-rule="evenodd" class="s0" d="m158.39 6.88c1.87 2.77 3.32 5.76 4.4 9.05l0.92 2.8 1.23-1.11c0.68-0.61 2.01-1.63 2.97-2.27 2.38-1.58 2.78-1.47 3.34 0.96 0.53 2.33 0.96 6.76 0.78 8.12l-0.14 1.05 1.09-0.47c1.74-0.75 5.61-1.92 7.45-2.26 2.19-0.4 2.56-0.16 2.33 1.52-0.24 1.86-1.1 4.87-2.03 7.19-0.47 1.17-0.86 2.14-0.86 2.15 0 0.01 1.38 0.03 3.06 0.04 3.63 0.04 7.52 0.69 8.22 1.39 0.42 0.43 0.43 0.53 0.1 1.17-0.77 1.5-3.53 4.95-5.42 6.78l-1.99 1.92 0.95 0.29c2.73 0.82 9.32 4.66 9.32 5.43 0 0.8-2.08 2.28-5.88 4.19-9.74 4.89-21.47 4.33-31.1-1.47l-2.23-1.35-1.57 1.02c-8.01 5.2-18.11 6.47-27.6 3.46-4.05-1.28-9.82-4.65-9.82-5.73 0-0.87 4.38-3.65 7.9-5.02l2.08-0.81-2.44-2.54c-2.53-2.63-5.04-6.07-5.04-6.91 0-0.26 0.25-0.59 0.56-0.71 1.4-0.59 5.01-1.09 7.96-1.1l3.14-0.02-0.68-1.51c-1.24-2.75-2.65-8.16-2.33-8.98 0.08-0.21 0.35-0.45 0.6-0.53 0.71-0.22 5.6 0.97 8.05 1.96l2.19 0.88 0.01-2.54c0-2.76 0.75-7.7 1.24-8.3 0.17-0.2 0.5-0.37 0.73-0.37 0.49 0 3.68 2.14 5.08 3.4 0.51 0.47 1.02 0.85 1.12 0.85 0.1 0 0.52-1.1 0.93-2.44 1.2-3.92 3.98-9.05 6.54-12.03 1.47-1.73 1.96-1.44 4.84 2.85zm-4.15-0.55c-3.51 4.77-5.88 10.6-6.62 16.28-0.4 3.13-0.17 8.7 0.48 11.53 0.63 2.74 1.83 6.21 2.85 8.23 0.94 1.87 3.85 6.38 4.12 6.38 0.1 0 0.82-0.99 1.6-2.19 7.31-11.39 8.11-23.54 2.29-35.18-0.84-1.66-2.54-4.36-3.51-5.55l-0.44-0.54zm-14.07 12.3c-0.31 2.11-0.37 7.34-0.08 7.78 0.1 0.15 1.02 0.85 2.06 1.54 1.03 0.69 2.09 1.49 2.35 1.78 0.76 0.84 0.94 0.62 0.83-1.05-0.05-0.86 0-2.95 0.12-4.65l0.22-3.1-0.82-0.86c-0.8-0.82-4-3.32-4.27-3.32-0.07 0-0.25 0.84-0.41 1.88zm27.44-0.67c-0.88 0.68-1.98 1.62-2.44 2.1l-0.83 0.87 0.23 3.1c0.12 1.7 0.17 3.79 0.12 4.65-0.06 0.86-0.03 1.57 0.06 1.57 0.09 0 0.64-0.38 1.21-0.84 0.57-0.47 1.68-1.26 2.45-1.77 0.78-0.51 1.48-1.18 1.56-1.48 0.37-1.38-0.05-8.18-0.56-9.09-0.14-0.26-0.59-0.04-1.8 0.89zm-38.45 6.74c0 0.1 0.21 0.96 0.46 1.92 2.7 10.16 10.09 18.06 20 21.38 1.27 0.43 2.41 0.74 2.55 0.69 0.14-0.04 0.02-0.37-0.25-0.72-1.01-1.28-3.53-6.11-4.29-8.2-0.43-1.18-0.99-3.04-1.25-4.13-0.39-1.61-0.65-2.17-1.42-2.97-2.2-2.31-6.4-4.98-10.13-6.45-1.7-0.67-5.68-1.74-5.67-1.52zm49.71 0.31c-3.26 0.79-7.35 2.67-10.41 4.78-2.13 1.48-4.58 3.97-4.58 4.67 0 0.94-1.77 6.4-2.72 8.41-0.52 1.1-1.53 2.94-2.24 4.08l-1.29 2.09 0.81-0.17c2.78-0.59 7.54-2.82 10.26-4.82 4.64-3.4 7.87-7.54 10.23-13.05 0.8-1.89 2.08-6.21 1.89-6.38-0.05-0.03-0.92 0.14-1.95 0.39zm-54.71 10.73c-0.76 0.1-1.8 0.26-2.32 0.35l-0.95 0.18 1.07 1.54c1.16 1.65 4 4.65 5.5 5.78 0.89 0.68 0.97 0.69 2.24 0.41 0.73-0.17 2.82-0.36 4.64-0.44l3.32-0.13-1.07-1.03c-1.41-1.36-3.37-3.73-4.38-5.31-0.78-1.21-0.88-1.28-2.13-1.43-1.59-0.19-4.08-0.16-5.92 0.08zm55.39-0.08c-0.84 0.11-1.06 0.3-2.16 1.93-0.68 1-2.09 2.74-3.15 3.86l-1.92 2.05h2.34c2.16 0.01 3.96 0.18 6.25 0.62 0.9 0.17 0.95 0.14 3.65-2.54 2.61-2.59 4.51-4.96 4.21-5.26-0.45-0.45-7.09-0.92-9.22-0.66zm-46.33 9.87c-2.86 0.2-6.01 0.91-8.81 1.99-2.04 0.78-5.75 2.85-5.75 3.21 0 0.32 3.56 2.31 5.75 3.21 7.03 2.89 14.89 3.01 22.2 0.34 2.11-0.78 5.11-2.29 5.75-2.92 0.3-0.28 0.25-0.36-0.37-0.49-3.33-0.74-7.71-2.59-10.35-4.37-1.28-0.87-1.52-0.94-3.62-1.04-1.24-0.06-3.4-0.03-4.8 0.07zm37.85-0.12c-0.88 0.09-1.73 0.46-3.32 1.45-2.45 1.54-4.89 2.61-7.74 3.4-3.3 0.91-3.22 0.78-1.12 1.95 6.63 3.68 13.87 4.79 21.5 3.27 1.32-0.26 3.17-0.77 4.12-1.13 1.78-0.67 5.6-2.58 6.46-3.23 0.48-0.37 0.48-0.38 0-0.73-2.21-1.64-7.67-3.85-11.12-4.51-2.15-0.41-6.79-0.65-8.78-0.47z"/>
	<path id="ZENTRUM" class="s1" aria-label="ZENTRUM"  d="m213.7 26.5h-13.3v3.3h8.7l-8.7 13.2v3h13.3v-3.3h-8.8l8.8-13.2zm14.6 0h-11.4v19.5h11.4v-3.2h-7.5v-5.1h6.6v-3.2h-6.6v-4.9h7.5zm16.4 0v13.5l-8.9-13.5h-3.9v19.6h3.9v-13.4l8.9 13.4h3.9v-19.6zm6.2 3.2h5.2v16.4h3.9v-16.4h5.2v-3.1h-14.3zm28.4 2.9c0 1.7-1 2.9-3.2 2.9h-3.2v-5.7h3.2c2.2 0 3.2 1 3.2 2.8zm-10.4-6.1v19.6h4v-7.7h1.8l4.3 7.7h4.6l-4.7-8c3.1-0.8 4.4-3.2 4.4-5.6 0-3.3-2.3-6-7-6zm17.9 12.1c0 5.1 3.5 7.6 7.8 7.6 4.3 0 8-2.5 8-7.6v-12.1h-3.9v12.1c0 2.7-1.5 4.1-4 4.1-2.5 0-4-1.4-4-4.1v-12.1h-3.9zm19.1 7.5h3.9v-12.7l5.3 12.7h2.9l5.3-12.7v12.7h3.9v-19.6h-4.4l-6.3 14.6-6.2-14.6h-4.4z"/>
	<path id="PHYSIO" class="s1" aria-label="PHYSIO"  d="m17.8 35.3v-5.7h3.2c2.2 0 3.1 1.1 3.1 2.9 0 1.7-0.9 2.8-3.1 2.8zm10.3-2.8c0-3.4-2.4-6-7.1-6h-7.2v19.5h4v-7.5h3.2c5.1 0 7.1-3 7.1-6zm15 13.5h3.9v-19.5h-3.9v8h-8.3v-8h-4v19.5h4v-8.3h8.3zm12.7-6.8v6.8h4v-6.8l6.6-12.8h-4.4l-4.2 9-4.2-9h-4.4zm26.7 1.2c0-6.9-10.1-4.7-10.1-8.6 0-1.6 1.2-2.4 2.7-2.3 1.7 0 2.7 1 2.8 2.3h4.3c-0.2-3.5-3-5.6-7-5.6-4 0-6.8 2.1-6.8 5.7-0.1 7.1 10 4.5 10 8.7 0 1.4-1.1 2.4-2.9 2.4-1.9 0-2.9-1-3-2.6h-4.2c0.1 3.7 3.2 5.8 7.2 5.8 4.5 0 7-2.7 7-5.8zm3.3 5.6h3.9v-19.5h-3.9zm27.1-9.8c0-5.9-4.5-10-10-10-5.5 0-10 4.1-10 10 0 5.9 4.5 10 10 10 5.5 0 10-4.1 10-10zm-16 0c0-4 2.4-6.5 6-6.5 3.5 0 5.9 2.5 5.9 6.5 0 3.9-2.4 6.5-5.9 6.5-3.6 0-6-2.6-6-6.5z"/>
</svg>